<svg xmlns="http://www.w3.org/2000/svg" xmlns:xlink="http://www.w3.org/1999/xlink" viewBox="0 0 20 20"><defs><style>.cls-1{fill:url(#linear-gradient);}</style><linearGradient id="linear-gradient" x1="-564" y1="256" x2="-544" y2="236" gradientTransform="matrix(1, 0, 0, -1, 564, 256)" gradientUnits="userSpaceOnUse"><stop offset="0" stop-color="#f58529"/><stop offset="0.25" stop-color="#feda77"/><stop offset="0.5" stop-color="#dd2a7b"/><stop offset="0.75" stop-color="#515bd4"/><stop offset="1" stop-color="#8134af"/></linearGradient></defs><g id="Layer_2" data-name="Layer 2"><g id="Layer_1-2" data-name="Layer 1"><path class="cls-1" d="M10,1.8c2.67,0,3,0,4,.06,2.71.12,4,1.41,4.1,4.1.05,1,.06,1.37.06,4s0,3-.06,4c-.12,2.69-1.39,4-4.1,4.1-1,.05-1.37.06-4,.06s-3,0-4-.06C3.24,18,2,16.73,1.86,14c-.05-1-.06-1.37-.06-4s0-3,.06-4C2,3.27,3.25,2,6,1.86,7,1.81,7.33,1.8,10,1.8ZM10,0C7.28,0,6.94,0,5.88.06,2.25.23.23,2.24.06,5.88,0,6.94,0,7.28,0,10s0,3.06.06,4.12c.17,3.64,2.18,5.65,5.82,5.82C6.94,20,7.28,20,10,20s3.06,0,4.12-.06c3.63-.17,5.65-2.18,5.82-5.82,0-1.06.06-1.4.06-4.12s0-3.06-.06-4.12C19.78,2.25,17.76.23,14.12.06,13.06,0,12.72,0,10,0Zm0,4.86A5.14,5.14,0,1,0,15.13,10,5.14,5.14,0,0,0,10,4.86Zm0,8.47A3.33,3.33,0,1,1,13.33,10,3.33,3.33,0,0,1,10,13.33Zm5.34-9.87a1.2,1.2,0,1,0,1.2,1.2A1.2,1.2,0,0,0,15.34,3.46Z"/></g></g></svg>