<svg xmlns="http://www.w3.org/2000/svg" viewBox="0 0 17.75 20"><defs><style>.cls-1{fill:#ff004f;}.cls-2{fill:#0d0d0d;}.cls-3{fill:#00f2ea;}</style></defs><g id="Layer_2" data-name="Layer 2"><g id="Layer_1-2" data-name="Layer 1"><path class="cls-1" d="M13.15,7.23a7.93,7.93,0,0,0,4.6,1.47V5.4a4.34,4.34,0,0,1-1-.1V7.88a7.86,7.86,0,0,1-4.6-1.47v6.72a6.09,6.09,0,0,1-9.48,5,6.1,6.1,0,0,0,10.46-4.24ZM14.34,3.9a4.52,4.52,0,0,1-1.19-2.68V.8h-.9A4.5,4.5,0,0,0,14.34,3.9ZM4.83,15.6a2.75,2.75,0,0,1-.56-1.69,2.78,2.78,0,0,1,2.79-2.77,2.89,2.89,0,0,1,.84.12V7.91a5.26,5.26,0,0,0-1,0v2.61a2.66,2.66,0,0,0-.83-.13A2.78,2.78,0,0,0,4.83,15.6Z"/><path class="cls-2" d="M12.18,6.43A7.87,7.87,0,0,0,16.77,7.9V5.3a4.53,4.53,0,0,1-2.43-1.4A4.63,4.63,0,0,1,12.23.8H9.84V13.93A2.79,2.79,0,0,1,7,16.7a2.74,2.74,0,0,1-2.21-1.1A2.78,2.78,0,0,1,6.1,10.34a2.57,2.57,0,0,1,.83.13V7.86a6.08,6.08,0,0,0-6,6.07A6,6,0,0,0,2.7,18.17a6,6,0,0,0,3.38,1,6.09,6.09,0,0,0,6.1-6.07Z"/><path class="cls-3" d="M16.77,5.3V4.6a4.46,4.46,0,0,1-2.43-.7A4.52,4.52,0,0,0,16.77,5.3ZM12.23.8a2.52,2.52,0,0,1-.05-.37V0H8.88V13.13a2.8,2.8,0,0,1-2.8,2.78,2.63,2.63,0,0,1-1.25-.31A2.74,2.74,0,0,0,7,16.7a2.79,2.79,0,0,0,2.8-2.77V.8ZM6.92,7.86V7.12a4.62,4.62,0,0,0-.84-.06A6.08,6.08,0,0,0,2.7,18.19,6.08,6.08,0,0,1,6.92,7.86Z"/></g></g></svg>