<svg xmlns="http://www.w3.org/2000/svg" viewBox="0 0 20 20"><defs><style>.cls-1{fill:#e60023;fill-rule:evenodd;}</style></defs><g id="Layer_2" data-name="Layer 2"><g id="Layer_1-2" data-name="Layer 1"><path class="cls-1" d="M10,0A10,10,0,0,0,6.36,19.31a9.55,9.55,0,0,1,0-2.87c.18-.78,1.17-5,1.17-5A3.6,3.6,0,0,1,7.26,10c0-1.39.81-2.43,1.81-2.43A1.26,1.26,0,0,1,10.34,9a20.35,20.35,0,0,1-.83,3.33A1.45,1.45,0,0,0,11,14.11c1.78,0,3.14-1.88,3.14-4.58A3.94,3.94,0,0,0,10,5.46,4.33,4.33,0,0,0,5.44,9.8a3.83,3.83,0,0,0,.75,2.28.32.32,0,0,1,.07.29L6,13.5c-.05.18-.15.22-.34.13-1.25-.58-2-2.4-2-3.87,0-3.16,2.29-6,6.61-6a5.87,5.87,0,0,1,6.17,5.77c0,3.45-2.18,6.22-5.19,6.22a2.66,2.66,0,0,1-2.29-1.14l-.63,2.37A10.75,10.75,0,0,1,7,19.55,10,10,0,1,0,10,0Z"/></g></g></svg>