<svg xmlns="http://www.w3.org/2000/svg" viewBox="0 0 20 16.25"><defs><style>.cls-1{fill:#00acee;}</style></defs><g id="Layer_2" data-name="Layer 2"><g id="Layer_1-2" data-name="Layer 1"><path class="cls-1" d="M20,1.92a8.18,8.18,0,0,1-2.36.65A4.13,4.13,0,0,0,19.45.3a8.42,8.42,0,0,1-2.61,1A4.1,4.1,0,0,0,9.85,5,11.67,11.67,0,0,1,1.39.75,4.11,4.11,0,0,0,2.66,6.23,4.08,4.08,0,0,1,.8,5.71,4.11,4.11,0,0,0,4.1,9.79a4.14,4.14,0,0,1-1.86.07,4.12,4.12,0,0,0,3.84,2.85A8.3,8.3,0,0,1,0,14.41a11.65,11.65,0,0,0,6.29,1.84A11.6,11.6,0,0,0,18,4.05,8.31,8.31,0,0,0,20,1.92Z"/></g></g></svg>